<svg width="49" height="49" viewBox="0 0 49 49" fill="none" xmlns="http://www.w3.org/2000/svg">
<path d="M42.6586 25.6174C42.0471 24.1655 39.2786 22.9596 37.9152 22.443L36.5368 21.1839C36.4707 21.1232 36.3962 21.071 36.3163 21.0284C35.1957 20.4351 32.9001 20.1549 32.0341 20.0676C31.5292 19.7672 30.4064 19.1312 29.6405 18.9395C28.685 18.6988 26.7176 19.2687 25.63 19.6276C25.4404 19.6905 25.2721 19.8055 25.1432 19.96C24.1089 21.2095 21.7036 24.2975 21.7036 25.9657C21.7036 26.8999 22.5281 27.6754 23.4825 28.5733C23.8426 28.9131 24.4359 29.4702 24.5765 29.7227C24.6063 30.0167 24.6788 30.3661 24.7682 30.7975C24.9376 31.6081 25.2891 33.2965 24.9365 33.843C23.8085 35.5899 23.4921 38.7312 24.2431 40.7008C24.7405 42.0036 25.5533 42.4734 26.1477 42.6363C26.381 42.7013 26.6207 42.7301 26.8667 42.7301C28.4912 42.7301 30.3713 41.4369 32.0565 40.2779C32.7755 39.7837 33.519 39.2713 33.911 39.1179C35.4609 38.5118 36.1725 36.588 36.6923 35.1851C36.8063 34.8773 36.9618 34.4565 37.0321 34.3447C37.407 33.7545 38.436 32.8353 39.8901 32.1099C41.6168 31.247 43.4426 27.4815 42.6586 25.6174Z" fill="#8317DB"/>
<path d="M24.5 0C10.9909 0 0 10.9909 0 24.5C0 38.0091 10.9909 49 24.5 49C38.0091 49 49 38.0091 49 24.5C49 10.9909 38.0091 0 24.5 0ZM24.5 46.8696C19.1579 46.8696 14.2505 44.982 10.3997 41.8449L11.7312 39.8487C12.3938 39.6186 13.3887 39.1723 13.7807 38.4661C14.8971 36.456 13.573 33.5842 13.1224 32.7182C13.0819 32.1887 12.968 31.0607 12.707 30.4088C12.381 29.596 11.189 28.8557 10.3433 28.4157C9.71265 27.3282 8.85515 25.5077 8.85515 24.5C8.85515 23.0822 9.95765 22.8138 10.5009 22.753C12.2915 22.4441 13.3908 21.2074 13.8585 20.5534C14.7256 20.2839 16.3159 19.666 16.9029 18.637C17.5313 17.5367 16.9508 15.2358 16.48 13.7892C16.5886 13.1948 16.7452 11.9187 16.3607 10.8301C15.9697 9.7233 15.0196 8.86154 14.5477 8.48659C14.2878 7.89859 13.6476 6.57452 12.7656 5.4912C15.1975 3.98498 17.9308 2.93574 20.8612 2.4532C20.5789 3.15198 20.4064 3.86141 20.6354 4.49202C20.9187 5.2707 21.8881 5.84485 22.8755 6.24217C22.7754 7.21365 22.8383 8.62294 23.8342 9.41972C24.8899 10.2634 26.2043 9.90226 26.9894 9.68602C26.9969 9.68496 27.0043 9.68283 27.0118 9.6807C27.0949 10.355 27.1343 11.5193 27.097 12.6132C27.0874 12.8902 27.1865 13.1597 27.3718 13.3642C27.5955 13.6113 29.6258 15.7897 31.8415 16.1008C31.9618 16.1178 32.0833 16.1253 32.2058 16.1253C34.2286 16.1253 36.5093 13.932 37.3391 13.0564C38.2189 12.8433 40.686 12.2159 42.6183 11.4319C45.2813 15.1133 46.8696 19.6202 46.8696 24.5C46.8696 36.8352 36.8352 46.8696 24.5 46.8696Z" fill="#8317DB"/>
</svg>
