<svg width="57" height="48" viewBox="0 0 57 48" fill="none" xmlns="http://www.w3.org/2000/svg">
<path d="M12.8048 0C9.30531 0 6.44114 2.84264 6.44114 6.31579C6.44114 9.78894 9.30531 12.6316 12.8048 12.6316C16.3042 12.6316 19.1684 9.78894 19.1684 6.31579C19.1684 2.84264 16.3042 0 12.8048 0ZM44.623 0C41.1235 0 38.2593 2.84264 38.2593 6.31579C38.2593 9.78894 41.1235 12.6316 44.623 12.6316C48.1224 12.6316 50.9866 9.78894 50.9866 6.31579C50.9866 2.84264 48.1224 0 44.623 0ZM12.8048 2.52632C14.9286 2.52632 16.623 4.20796 16.623 6.31579C16.623 8.42362 14.9286 10.1053 12.8048 10.1053C10.681 10.1053 8.98659 8.42362 8.98659 6.31579C8.98659 4.20796 10.681 2.52632 12.8048 2.52632ZM44.623 2.52632C46.7468 2.52632 48.4411 4.20796 48.4411 6.31579C48.4411 8.42362 46.7468 10.1053 44.623 10.1053C42.4992 10.1053 40.8048 8.42362 40.8048 6.31579C40.8048 4.20796 42.4992 2.52632 44.623 2.52632ZM12.8048 15.1579C6.14276 15.1579 0.713867 20.4177 0.713867 26.9408V36.6316C0.713901 36.9666 0.848002 37.2878 1.08668 37.5247C1.32535 37.7616 1.64906 37.8947 1.98659 37.8947H15.2508C16.9177 43.7191 22.32 48 28.7139 48C35.1078 48 40.51 43.7191 42.1769 37.8947H55.4411C55.7787 37.8947 56.1024 37.7616 56.3411 37.5247C56.5797 37.2878 56.7138 36.9666 56.7139 36.6316V26.9408C56.7139 20.4177 51.285 15.1579 44.623 15.1579C40.0717 15.1579 36.085 17.5955 34.0235 21.2368C32.387 20.5692 30.5894 20.2105 28.7139 20.2105C26.8383 20.2105 25.0407 20.5692 23.4042 21.2368C21.3428 17.5955 17.3561 15.1579 12.8048 15.1579ZM12.8048 17.6842C16.423 17.6842 19.5172 19.5947 21.1372 22.4211C17.2761 24.8981 14.7139 29.2148 14.7139 34.1053C14.7139 34.5306 14.7356 34.9527 14.7735 35.3684H3.25932V26.9408C3.25932 21.8007 7.48025 17.6842 12.8048 17.6842ZM44.623 17.6842C49.9475 17.6842 54.1684 21.8007 54.1684 26.9408V35.3684H42.6542C42.6921 34.9527 42.7139 34.5306 42.7139 34.1053C42.7139 29.2148 40.1517 24.8981 36.2906 22.4211C37.9105 19.5947 41.0047 17.6842 44.623 17.6842ZM28.7139 22.7368C35.0551 22.7368 40.1684 27.8117 40.1684 34.1053C40.1684 40.3988 35.0551 45.4737 28.7139 45.4737C22.3726 45.4737 17.2593 40.3988 17.2593 34.1053C17.2593 27.8117 22.3726 22.7368 28.7139 22.7368ZM28.6343 24.6118C28.4207 24.6253 28.2139 24.6921 28.0332 24.8059C27.8524 24.9198 27.7035 25.077 27.6002 25.2632L25.3133 29.2303L20.7593 30.3553C20.5516 30.4089 20.3609 30.5137 20.205 30.6601C20.0491 30.8065 19.9329 30.9896 19.8675 31.1925C19.802 31.3953 19.7892 31.6113 19.8304 31.8204C19.8716 32.0294 19.9654 32.2247 20.1031 32.3882L22.9866 35.8224V40.4211C22.9866 40.5886 23.0202 40.7545 23.0854 40.909C23.1506 41.0636 23.2461 41.2037 23.3664 41.3213C23.4867 41.4388 23.6294 41.5314 23.7861 41.5937C23.9428 41.6561 24.1104 41.6868 24.2792 41.6842C24.4966 41.6782 24.7089 41.6171 24.8957 41.5066L28.7139 39.3355L32.532 41.5066C32.7249 41.6171 32.9436 41.6754 33.1663 41.6757C33.389 41.6761 33.6078 41.6185 33.8011 41.5086C33.9943 41.3987 34.1551 41.2405 34.2674 41.0496C34.3797 40.8588 34.4396 40.6421 34.4411 40.4211V35.8224L37.3247 32.3882C37.4623 32.2247 37.5561 32.0294 37.5973 31.8204C37.6385 31.6113 37.6258 31.3953 37.5603 31.1925C37.4948 30.9896 37.3787 30.8065 37.2228 30.6601C37.0668 30.5137 36.8761 30.4089 36.6684 30.3553L32.1144 29.2303L29.8275 25.2632C29.7112 25.0536 29.5373 24.8811 29.326 24.7658C29.1148 24.6505 28.8749 24.5971 28.6343 24.6118ZM28.7139 28.4408L30.1457 30.9276C30.2294 31.0779 30.3431 31.2097 30.4799 31.3149C30.6167 31.4201 30.7736 31.4965 30.9411 31.5395L34.0832 32.3092L32.194 34.5592C32.0021 34.7859 31.8965 35.0723 31.8957 35.3684V38.2303L29.5093 36.8882C29.4775 36.8602 29.4443 36.8339 29.4099 36.8092L29.3502 36.7895C29.287 36.7509 29.2204 36.7179 29.1514 36.6908C29.1251 36.6834 29.0985 36.6768 29.0718 36.6711C29.0262 36.6553 28.9797 36.6421 28.9326 36.6316C28.8539 36.6176 28.774 36.611 28.694 36.6118C28.6807 36.6116 28.6675 36.6116 28.6542 36.6118C28.6208 36.6171 28.5876 36.6237 28.5548 36.6316C28.5014 36.6348 28.4482 36.6414 28.3957 36.6513C28.3687 36.6635 28.3422 36.6767 28.3161 36.6908C28.3029 36.6906 28.2896 36.6906 28.2764 36.6908C28.2494 36.703 28.2229 36.7162 28.1968 36.7303C28.1056 36.7663 28.0188 36.8126 27.9383 36.8684L25.532 38.2303V35.3684C25.5312 35.0723 25.4257 34.7859 25.2338 34.5592L23.3445 32.3092L26.4866 31.5395C26.6541 31.4965 26.8111 31.4201 26.9478 31.3149C27.0846 31.2097 27.1983 31.0779 27.282 30.9276L28.7139 28.4408Z" fill="#8317DB"/>
</svg>
