<svg width="66" height="65" viewBox="0 0 66 65" fill="none" xmlns="http://www.w3.org/2000/svg">
<path d="M29 64.5L29 35.3235L12.8269 35.3235C12.8269 35.3235 12.8269 22.7118 17.1026 18.1941C21.3782 13.6765 29 11.7941 29 11.7941L29 0.500004C16.5509 4.39959 9.92697 8.99824 6.13462 14.4644C2.34226 19.9305 -2.34856e-06 25.9118 -3.17136e-06 35.3235L-5.72205e-06 64.5L29 64.5Z" fill="#FFD41C"/>
<path d="M66 64.5L66 35.3235L49.8269 35.3235C49.8269 35.3235 49.8269 22.7118 54.1026 18.1941C58.3782 13.6765 66 11.7941 66 11.7941L66 0.500004C53.5509 4.39959 46.927 8.99824 43.1346 14.4644C39.3423 19.9305 37 25.9118 37 35.3235L37 64.5L66 64.5Z" fill="#FFD41C" fill-opacity="0.6"/>
</svg>
